<?xml version="1.0" standalone="no"?>
<!DOCTYPE svg PUBLIC "-//W3C//DTD SVG 20010904//EN"
 "http://www.w3.org/TR/2001/REC-SVG-20010904/DTD/svg10.dtd">
<svg version="1.0" xmlns="http://www.w3.org/2000/svg"
 width="860.000000pt" height="820.000000pt" viewBox="0 0 860.000000 820.000000"
 preserveAspectRatio="xMidYMid meet">

<g transform="translate(0.000000,820.000000) scale(0.100000,-0.100000)"
fill="#000000" stroke="none">
<path d="M4258 7766 c-18 -19 -72 -99 -121 -179 -48 -80 -95 -148 -103 -151
-9 -4 -80 15 -158 40 -125 42 -154 48 -253 52 -142 6 -252 -16 -295 -58 -33
-34 -35 -58 -8 -88 31 -33 64 -47 195 -82 66 -18 130 -37 141 -44 40 -21 97
-77 88 -86 -6 -6 -48 -2 -102 10 -186 38 -374 52 -628 48 -223 -4 -243 -6
-304 -29 -58 -21 -67 -29 -87 -68 -22 -42 -22 -46 -5 -64 28 -32 50 -38 174
-56 65 -9 119 -20 119 -26 0 -5 -57 -25 -127 -43 -70 -19 -138 -41 -151 -49
-13 -9 -48 -52 -77 -97 -30 -44 -73 -99 -96 -121 -22 -22 -52 -59 -65 -81 -32
-55 -68 -69 -153 -60 -227 22 -277 25 -353 16 -214 -25 -331 -110 -346 -253
-6 -57 8 -97 46 -131 29 -26 55 -16 136 52 39 32 76 57 83 55 9 -4 12 -39 12
-132 0 -142 -4 -153 -89 -246 -182 -199 -291 -478 -308 -790 -7 -139 8 -201
67 -268 46 -52 60 -89 60 -158 0 -43 -3 -49 -34 -67 -44 -26 -113 -113 -126
-160 -43 -156 47 -399 161 -433 66 -20 70 -29 95 -246 13 -109 23 -217 24
-240 0 -40 -2 -44 -47 -69 -72 -41 -111 -82 -129 -137 -38 -116 20 -257 133
-324 39 -22 62 -27 148 -32 96 -6 135 -18 135 -42 0 -5 -42 -51 -93 -101 -118
-118 -132 -146 -132 -263 0 -112 21 -156 99 -215 122 -92 319 -119 357 -49 15
30 -14 83 -85 157 -73 76 -86 107 -59 141 l19 23 45 -59 c55 -71 90 -89 187
-99 l74 -7 -8 -177 -7 -176 28 -22 c53 -42 92 -29 154 53 60 80 76 76 164 -40
132 -176 159 -235 222 -487 52 -205 60 -226 92 -234 51 -13 98 42 114 135 6
33 14 61 19 61 4 0 33 -23 66 -52 73 -64 144 -98 206 -98 25 0 54 -3 63 -7 24
-9 149 -201 174 -267 14 -38 22 -88 25 -168 6 -139 18 -182 65 -229 34 -34 86
-56 173 -74 l27 -5 -5 -93 c-5 -82 -3 -96 15 -125 24 -38 61 -55 99 -46 16 4
76 56 149 130 86 87 129 124 145 124 16 0 56 -35 138 -119 149 -155 182 -168
233 -93 37 53 49 92 42 131 -11 60 9 87 82 112 74 24 123 63 148 115 10 22 21
82 27 148 15 181 47 274 131 384 47 62 80 82 135 82 62 0 118 25 190 85 l67
56 8 -53 c9 -62 32 -104 69 -126 26 -15 28 -15 52 7 30 28 34 39 86 231 48
175 87 282 132 354 30 49 176 246 182 246 2 0 24 -27 50 -60 72 -92 135 -115
175 -64 19 25 21 40 21 194 l0 167 65 7 c107 11 144 33 206 124 17 23 34 42
38 42 13 0 20 -62 10 -88 -5 -13 -40 -56 -78 -96 -74 -78 -88 -104 -71 -136
14 -26 61 -50 97 -50 46 0 143 28 210 61 141 68 196 209 141 356 -17 46 -38
74 -103 138 -73 71 -113 121 -103 130 21 17 61 25 135 25 103 0 150 17 208 75
21 21 48 61 60 89 64 142 32 236 -111 329 -33 22 -50 40 -53 57 -5 39 40 411
55 448 9 23 25 38 51 49 67 27 95 54 125 120 33 74 68 210 68 269 0 67 -43
138 -111 185 -68 46 -76 64 -59 143 8 42 22 69 52 104 59 68 68 96 68 219 0
313 -108 607 -305 833 -31 36 -66 83 -77 105 -29 56 -35 156 -14 229 l17 57
62 -44 c84 -60 120 -77 160 -77 67 0 94 74 62 171 -25 75 -109 158 -190 188
-135 51 -307 64 -460 35 -44 -8 -99 -18 -122 -21 l-43 -6 -19 47 c-31 70 -60
104 -133 152 -64 43 -68 48 -84 105 -10 34 -26 67 -39 77 -12 9 -74 30 -138
45 -64 16 -117 33 -117 37 0 10 41 23 141 45 57 12 82 23 103 44 30 32 27 52
-17 106 l-25 30 -407 4 c-263 2 -446 -1 -517 -8 -61 -7 -113 -9 -116 -6 -11
11 36 35 178 90 210 81 243 114 185 184 -32 37 -104 54 -230 55 -94 0 -90 1
-364 -98 -121 -44 -133 -35 -221 170 -87 201 -117 227 -182 160z m70 -123 c11
-16 52 -92 91 -171 52 -104 78 -146 97 -154 21 -10 56 -1 247 60 267 86 299
94 332 87 14 -3 36 -7 50 -10 41 -9 29 -30 -32 -55 -84 -34 -295 -136 -313
-152 -34 -29 -50 -64 -50 -110 0 -32 4 -48 13 -48 6 0 100 11 207 25 306 38
477 48 675 42 180 -6 219 -11 213 -29 -2 -6 -46 -21 -98 -34 -183 -46 -289
-84 -323 -114 -21 -19 -29 -32 -22 -39 8 -8 425 -71 471 -71 8 0 14 -7 14 -15
0 -15 1 -15 -220 -70 -211 -52 -223 -56 -216 -62 3 -3 96 -7 208 -8 289 -4
373 -27 447 -124 l26 -34 -50 7 c-27 3 -104 9 -171 13 -114 5 -122 5 -142 -15
-23 -23 -20 -52 6 -75 10 -8 55 -27 102 -42 100 -32 150 -30 427 11 318 47
421 43 537 -19 69 -37 166 -141 149 -158 -8 -8 -36 1 -99 32 -117 57 -202 63
-344 24 -475 -129 -572 -146 -724 -126 -217 29 -295 102 -269 254 6 34 10 63
9 64 -1 1 -55 -14 -120 -33 -133 -38 -201 -42 -261 -15 -103 47 -172 181 -151
294 3 18 22 60 41 92 20 32 33 60 31 63 -11 10 -256 -38 -370 -73 -66 -20
-169 -58 -230 -85 -60 -27 -111 -48 -113 -46 -2 2 -17 84 -33 181 -23 141 -33
182 -49 199 -21 20 -21 20 -36 1 -27 -36 -55 -147 -61 -239 -3 -50 -7 -110
-10 -133 l-5 -43 -107 54 c-192 96 -397 161 -575 181 l-57 6 21 -53 c78 -196
79 -257 2 -330 -38 -36 -131 -77 -190 -85 -60 -7 -150 15 -232 57 -33 16 -62
30 -64 30 -3 0 -6 -36 -9 -79 -6 -103 -35 -164 -101 -208 -60 -41 -122 -53
-262 -53 -138 0 -262 22 -464 84 -195 59 -249 68 -327 56 -35 -6 -74 -14 -87
-19 -13 -5 -47 -16 -75 -25 l-52 -15 0 25 c0 27 59 98 99 118 14 8 44 17 67
20 52 9 484 -10 670 -29 250 -26 285 -21 320 46 19 38 18 55 -6 79 -26 26 -78
26 -211 0 -57 -11 -104 -18 -106 -17 -6 7 63 95 93 121 18 14 56 37 85 51 63
29 107 30 304 11 122 -12 162 -8 140 13 -6 5 -85 30 -177 56 -93 26 -168 51
-168 56 0 4 8 10 18 13 33 9 188 35 277 46 104 13 139 30 130 63 -4 12 -16 30
-27 39 -29 25 -160 64 -258 78 -47 6 -103 16 -125 21 l-39 11 29 16 c68 36
528 26 840 -19 78 -11 170 -19 205 -17 l65 3 3 35 c2 26 -5 48 -28 82 -58 87
-136 135 -288 174 -53 14 -101 29 -105 33 -5 5 12 17 37 26 77 29 162 17 377
-54 204 -68 218 -68 256 -14 11 15 48 78 83 138 61 107 95 155 111 155 4 0 16
-12 27 -27z m-2147 -1414 c147 -90 193 -116 232 -130 35 -12 67 -49 67 -77 0
-16 -50 -32 -103 -32 -80 0 -134 -38 -280 -192 -69 -73 -135 -146 -148 -161
-18 -24 -79 -157 -79 -174 0 -3 11 -2 24 1 48 12 89 -6 148 -66 33 -32 68 -59
81 -60 39 -2 81 3 142 19 102 26 159 32 210 22 52 -10 135 -46 135 -59 0 -4
-71 -57 -157 -118 -265 -185 -309 -223 -366 -322 -42 -73 -54 -137 -102 -515
-35 -276 -44 -375 -39 -427 4 -37 10 -68 14 -68 4 0 53 20 109 45 156 69 235
88 351 83 84 -3 105 -8 161 -35 60 -30 169 -126 157 -138 -3 -3 -55 0 -115 6
-176 20 -279 -12 -342 -107 -17 -26 -51 -111 -77 -188 -54 -168 -89 -243 -148
-324 -152 -207 -421 -218 -485 -20 -26 80 10 146 109 199 40 21 62 40 68 58 6
16 4 94 -4 206 -30 430 -37 631 -24 766 18 201 17 220 -11 238 -13 9 -39 29
-57 45 -32 28 -34 33 -29 80 2 28 7 58 10 66 4 11 -9 22 -46 40 -72 35 -91 70
-90 169 2 161 58 391 129 534 50 98 85 148 173 241 106 114 123 159 107 288
-7 56 -5 72 8 93 27 42 75 65 132 65 44 0 63 -7 135 -51z m4457 27 c50 -26 64
-90 40 -179 -19 -73 -6 -106 83 -204 106 -116 173 -210 220 -308 74 -156 115
-356 108 -528 -5 -97 -16 -117 -86 -149 l-43 -19 0 -81 c0 -86 -14 -118 -50
-118 -9 0 -25 -9 -35 -20 -17 -19 -18 -28 -4 -168 19 -199 16 -452 -10 -719
-11 -122 -21 -247 -21 -277 0 -62 9 -71 85 -97 21 -8 54 -29 72 -47 29 -29 33
-39 33 -86 0 -189 -207 -267 -388 -145 -106 70 -166 172 -253 427 -66 193 -98
240 -189 281 -53 24 -133 27 -258 9 -45 -6 -86 -8 -90 -3 -12 12 102 109 164
139 106 52 194 46 472 -34 93 -27 140 -36 147 -29 13 13 10 255 -5 394 -25
239 -86 515 -130 592 -17 29 -60 78 -98 111 -79 67 -315 246 -387 291 l-48 31
59 27 c53 25 69 28 164 27 77 -1 122 -7 170 -23 108 -35 149 -26 207 46 23 29
49 46 92 63 34 12 61 24 61 26 0 2 -13 32 -30 66 -21 45 -66 103 -158 203
-172 187 -214 225 -251 225 -36 0 -161 38 -161 49 0 18 72 80 107 91 64 21
116 51 161 92 61 56 96 69 165 63 32 -2 70 -11 85 -19z m-2427 -46 c14 -19 20
-58 27 -167 10 -141 34 -233 62 -233 6 0 22 24 35 53 21 45 26 77 33 199 5 96
13 152 21 162 17 20 84 21 104 2 9 -9 16 -45 19 -93 7 -92 25 -141 72 -194 77
-84 70 -170 -20 -256 -30 -29 -87 -68 -126 -87 -59 -30 -81 -36 -134 -36 -80
0 -151 26 -229 85 -78 58 -100 100 -100 187 0 59 4 72 33 114 23 32 42 80 61
153 24 92 32 108 57 123 37 23 62 20 85 -12z m-696 -266 c46 -31 189 -146 372
-300 145 -122 183 -168 183 -221 0 -42 -35 -76 -71 -69 -14 3 -140 70 -280
150 -140 79 -269 148 -288 151 l-34 7 7 -81 c19 -219 111 -388 229 -423 37
-11 51 -8 221 50 99 34 191 62 204 62 21 0 22 -3 16 -37 -6 -36 -169 -653
-200 -757 -28 -96 -23 -110 83 -268 53 -78 128 -188 166 -243 81 -116 94 -144
103 -218 20 -173 -96 -408 -231 -468 -109 -48 -256 -31 -352 41 -60 46 -186
186 -245 274 -109 159 -173 356 -166 508 4 75 9 96 41 161 33 66 55 92 168
199 72 68 138 136 146 153 10 19 17 68 20 140 7 154 5 156 -208 262 -227 112
-304 183 -329 301 -16 73 1 147 62 261 75 142 194 325 233 360 46 40 96 42
150 5z m1732 -30 c111 -117 236 -341 268 -478 17 -73 11 -136 -19 -195 -34
-64 -177 -169 -327 -238 -145 -68 -199 -135 -199 -249 0 -89 32 -145 143 -250
174 -165 227 -242 246 -364 25 -153 -45 -370 -181 -567 -69 -99 -219 -250
-289 -288 -49 -27 -63 -30 -144 -30 -79 0 -97 4 -142 28 -138 72 -225 211
-239 381 -10 116 5 150 184 421 153 231 182 284 182 329 0 11 -50 200 -111
419 -61 220 -108 405 -105 413 9 23 53 16 225 -36 172 -53 224 -59 271 -35 30
16 72 71 108 140 71 141 94 345 39 345 -18 0 -335 -171 -435 -235 -65 -40 -97
-55 -124 -55 -44 0 -56 14 -64 71 -7 56 2 66 201 231 352 290 362 298 419 298
36 0 46 -6 93 -56z m-815 -773 c124 -276 188 -435 188 -471 0 -62 -41 -102
-116 -111 -77 -10 -354 -10 -421 0 -62 9 -100 39 -109 87 -9 47 27 158 92 284
48 93 163 283 164 270 0 -3 -16 -95 -35 -205 -19 -110 -35 -208 -35 -217 0
-16 13 -18 140 -18 133 0 140 1 140 20 0 11 -13 110 -30 220 -16 110 -30 205
-30 211 0 24 24 -8 52 -70z m-2829 -622 c31 -16 37 -28 37 -72 0 -32 -7 -44
-52 -87 -52 -48 -53 -50 -53 -107 0 -32 4 -75 9 -95 7 -31 5 -38 -7 -38 -16 0
-64 154 -73 237 -8 66 13 122 55 150 38 26 53 28 84 12z m5488 -15 c30 -27 42
-81 37 -173 -3 -74 -9 -95 -37 -148 -19 -35 -38 -63 -43 -63 -5 0 -6 19 -1 48
4 26 8 71 8 100 0 48 -3 56 -31 80 -38 32 -49 53 -59 109 -6 38 -4 43 22 57
32 18 78 14 104 -10z m-2579 -3 c211 -14 205 -47 -71 -451 -74 -107 -137 -199
-141 -204 -8 -8 -90 110 -264 382 -91 141 -98 155 -91 189 3 20 19 49 35 65
l28 28 199 -1 c109 0 246 -4 305 -8z m-1895 -830 c47 -22 63 -45 63 -91 0 -45
-14 -66 -59 -83 -30 -12 -171 -37 -210 -37 -9 0 12 -185 35 -300 50 -253 171
-561 344 -884 45 -83 84 -153 85 -154 2 -2 81 62 177 143 211 179 243 197 358
202 100 5 120 -3 167 -65 47 -61 44 -93 -11 -148 -56 -57 -82 -57 -167 -2 -88
58 -126 58 -202 0 -114 -88 -139 -148 -161 -378 -20 -208 -33 -304 -41 -312
-9 -10 -25 20 -25 49 0 44 -40 181 -76 258 -19 41 -63 118 -98 170 -69 103
-231 301 -246 301 -5 0 -37 -36 -71 -80 -52 -67 -77 -91 -79 -77 -1 1 -5 103
-10 227 -5 138 -14 251 -24 293 -16 66 -66 180 -86 192 -23 14 -107 -118 -96
-153 3 -9 28 -41 56 -70 55 -58 61 -83 28 -106 -54 -38 -124 -1 -145 76 -18
66 -80 86 -158 53 -41 -17 -59 -54 -50 -105 12 -64 57 -185 78 -207 l20 -23
-34 0 c-117 2 -223 97 -223 200 1 91 71 177 270 330 58 45 104 84 101 86 -2 2
-30 9 -63 15 -32 6 -63 13 -67 16 -10 6 28 34 95 68 49 26 60 46 73 135 43
295 106 411 252 465 56 20 150 18 200 -4z m3589 -14 c124 -63 178 -185 209
-472 8 -74 25 -101 67 -110 52 -12 112 -45 100 -57 -5 -5 -40 -17 -77 -27
l-68 -17 164 -125 c191 -146 221 -181 227 -269 3 -36 -1 -72 -8 -90 -26 -63
-136 -130 -212 -130 -34 0 -34 3 -4 43 124 162 88 316 -71 308 -32 -1 -60 -33
-73 -80 -11 -41 -59 -91 -88 -91 -26 0 -82 38 -82 56 0 9 20 39 44 67 80 95
83 114 25 187 -46 58 -51 57 -92 -18 -47 -86 -58 -151 -67 -387 -4 -121 -11
-228 -15 -238 -7 -17 -9 -17 -33 5 -14 13 -44 49 -68 81 l-42 57 -69 -76 c-98
-109 -202 -251 -250 -341 -48 -90 -99 -235 -109 -310 -3 -29 -10 -53 -15 -53
-15 0 -27 71 -49 285 -15 138 -28 224 -40 252 -21 47 -86 123 -144 165 -53 39
-88 36 -166 -12 -100 -61 -167 -54 -204 24 -34 72 -13 141 53 170 32 15 57 18
120 14 116 -7 188 -46 381 -208 85 -72 157 -130 161 -130 8 0 156 284 217 415
135 293 213 556 242 810 5 50 10 96 10 103 0 8 -22 12 -77 12 -159 1 -254 88
-175 162 51 48 81 59 157 55 50 -3 84 -11 121 -30z m-1884 -284 c8 -10 41 -62
73 -116 32 -54 65 -102 74 -106 9 -5 72 -11 141 -13 135 -5 171 -16 209 -64
56 -71 33 -152 -95 -347 -103 -154 -134 -230 -137 -328 -1 -34 -6 -64 -12 -66
-5 -1 -29 32 -52 75 -23 42 -53 92 -66 110 l-25 33 -30 -36 c-17 -22 -45 -81
-67 -146 -20 -60 -41 -111 -45 -114 -4 -2 -13 15 -20 38 -26 89 -71 193 -98
225 l-27 32 -63 -100 c-35 -55 -67 -100 -72 -100 -4 0 -11 28 -14 62 -13 113
-53 196 -178 369 -63 88 -82 145 -76 224 5 65 32 107 74 117 16 4 84 11 151
15 117 9 124 11 154 39 17 16 47 56 66 89 75 126 101 147 135 108z m-912
-1221 c15 -16 34 -49 40 -73 57 -212 98 -307 187 -440 106 -157 230 -282 493
-498 167 -138 172 -139 281 -54 143 110 245 202 359 319 212 220 318 401 370
631 14 62 70 133 105 133 13 0 36 -10 51 -23 21 -18 28 -34 31 -78 6 -58 26
-90 75 -115 46 -24 61 -66 56 -158 -8 -145 -82 -256 -194 -290 l-21 -6 18 54
c47 137 47 246 0 246 -39 0 -68 -51 -170 -292 -45 -106 -104 -208 -161 -278
-18 -22 -23 -51 -34 -191 -14 -181 -26 -218 -77 -245 -17 -8 -33 -14 -35 -12
-2 2 5 28 16 56 34 89 24 133 -34 152 -50 16 -159 -6 -248 -52 -55 -27 -53
-65 7 -138 25 -30 59 -82 75 -115 28 -58 33 -86 31 -169 l-1 -38 -120 113
c-157 149 -189 172 -223 164 -14 -4 -80 -58 -145 -120 -158 -149 -172 -157
-172 -86 0 69 39 154 125 275 19 26 35 57 35 67 0 29 -35 54 -118 82 -93 33
-159 35 -195 7 -38 -30 -40 -60 -13 -140 14 -38 23 -70 20 -70 -3 0 -18 7 -34
15 -49 25 -67 69 -74 183 -11 166 -53 289 -150 439 -23 38 -65 122 -91 188
-39 95 -58 129 -93 165 l-45 45 -19 -55 c-22 -63 -17 -103 27 -194 13 -28 22
-52 20 -55 -3 -2 -25 4 -49 13 -86 33 -165 152 -174 262 -6 80 20 137 89 195
44 36 49 45 49 80 0 47 21 91 52 113 32 22 45 20 78 -12z"/>
</g>
</svg>
