<?xml version="1.0" standalone="no"?>
<!DOCTYPE svg PUBLIC "-//W3C//DTD SVG 20010904//EN"
 "http://www.w3.org/TR/2001/REC-SVG-20010904/DTD/svg10.dtd">
<svg version="1.0" xmlns="http://www.w3.org/2000/svg"
 width="225.000000pt" height="225.000000pt" viewBox="0 0 225.000000 225.000000"
 preserveAspectRatio="xMidYMid meet">

<g transform="translate(0.000000,225.000000) scale(0.100000,-0.100000)"
fill="#000000" stroke="none">
<path d="M1084 2168 c-16 -12 -77 -64 -137 -116 -123 -108 -104 -105 -255 -41
-84 36 -95 39 -120 27 -27 -13 -27 -14 -27 -119 -1 -149 -13 -173 -126 -250
-134 -92 -198 -169 -187 -225 2 -10 53 -45 120 -83 129 -73 162 -100 177 -142
10 -28 9 -29 -17 -23 -52 13 -156 55 -212 87 -56 30 -58 31 -84 14 -34 -23
-34 -55 1 -110 62 -99 237 -339 251 -344 8 -4 43 1 77 10 83 22 125 11 166
-45 35 -50 72 -163 67 -210 -3 -33 -4 -33 -48 -30 -35 2 -51 -2 -69 -19 -30
-28 -25 -47 53 -172 136 -221 197 -307 223 -313 35 -9 65 23 96 104 49 124 61
189 61 322 0 149 -19 246 -74 370 -21 47 -54 121 -73 165 -64 143 -83 303 -52
433 33 141 71 174 206 180 146 7 203 -25 240 -136 19 -54 23 -88 23 -177 0
-136 -15 -194 -99 -379 -94 -211 -115 -292 -115 -452 0 -225 95 -464 169 -424
22 11 92 112 209 301 99 160 97 199 -12 199 l-46 0 0 39 c0 67 37 167 78 210
48 50 80 58 147 37 74 -23 89 -21 120 20 81 106 245 361 245 380 0 24 -33 54
-59 54 -8 0 -31 -11 -52 -25 -36 -26 -228 -99 -236 -91 -9 8 27 64 57 89 16
14 73 49 125 77 112 60 125 72 125 110 0 40 -89 134 -190 202 -111 74 -125
101 -125 243 0 107 -1 110 -26 124 -23 13 -33 11 -142 -33 -64 -26 -121 -45
-127 -41 -6 4 -67 56 -137 116 -69 60 -134 109 -143 109 -10 0 -30 -10 -46
-22z m181 -148 c61 -52 117 -101 126 -108 14 -11 30 -8 95 19 44 17 100 39
125 49 l46 19 -1 -102 c-1 -142 18 -180 135 -259 82 -57 179 -146 179 -167 0
-6 -21 -22 -47 -37 -182 -102 -205 -119 -234 -169 -32 -56 -39 -122 -14 -131
20 -8 215 59 283 97 28 16 52 26 52 23 0 -9 -229 -341 -244 -353 -9 -7 -27 -5
-64 6 -45 14 -60 15 -100 5 -96 -25 -168 -141 -179 -289 -7 -92 1 -103 73
-103 30 0 54 -3 54 -6 0 -24 -241 -395 -254 -391 -16 5 -66 140 -82 225 -26
137 -13 298 34 432 11 30 43 104 72 163 90 190 117 351 86 507 -24 119 -58
177 -121 210 -45 22 -61 25 -165 25 -100 0 -121 -3 -157 -22 -91 -49 -128
-150 -128 -343 1 -151 15 -206 92 -375 77 -168 102 -245 114 -359 17 -152 -12
-323 -76 -445 l-17 -34 -29 44 c-65 96 -219 346 -219 355 0 5 23 9 51 9 68 0
82 19 76 100 -12 150 -84 270 -177 295 -37 10 -54 9 -104 -4 -32 -9 -59 -15
-60 -14 -1 2 -16 21 -33 43 -53 70 -213 308 -213 317 0 5 12 1 27 -10 59 -42
280 -119 309 -108 20 8 17 63 -5 111 -26 56 -60 85 -181 153 -57 32 -105 63
-107 69 -7 19 79 103 162 157 49 33 95 72 110 94 32 49 47 129 39 210 -7 65
-7 65 17 59 13 -3 69 -24 123 -47 79 -34 103 -40 120 -32 12 6 77 60 146 121
103 90 127 108 140 98 8 -6 65 -54 125 -107z"/>
<path d="M985 1994 c-71 -63 -135 -114 -142 -114 -6 0 -52 16 -101 36 -50 21
-96 34 -104 31 -11 -4 -17 -29 -22 -84 -10 -123 -38 -170 -144 -242 -108 -73
-152 -114 -152 -140 0 -15 25 -34 100 -76 108 -61 151 -103 175 -174 17 -50
20 -117 6 -126 -6 -3 -59 10 -119 30 -60 19 -116 35 -125 35 -34 0 -16 -44 59
-147 l77 -105 36 8 c151 35 249 -39 305 -225 24 -83 21 -147 -9 -176 -13 -14
-32 -25 -43 -25 -33 0 -43 -20 -25 -54 34 -65 163 -257 178 -262 26 -10 42 14
66 99 20 68 24 105 24 217 -1 163 -17 229 -100 405 -109 232 -139 408 -97 574
12 45 32 101 44 123 45 81 179 126 313 107 153 -21 213 -91 246 -283 25 -147
-6 -299 -105 -516 -36 -80 -72 -172 -81 -205 -23 -83 -31 -259 -16 -337 17
-84 62 -219 72 -216 18 6 199 304 197 322 -2 13 -14 23 -34 28 -72 18 -84 85
-39 224 52 162 140 229 268 204 l61 -12 24 29 c50 62 132 189 132 206 0 24
-18 22 -141 -18 -60 -19 -113 -35 -119 -35 -21 0 -11 105 16 159 31 61 64 89
176 152 53 29 84 53 86 65 4 25 -48 75 -151 144 -102 69 -134 122 -144 243 -4
53 -11 81 -20 84 -7 3 -57 -13 -111 -35 -93 -39 -98 -40 -117 -23 -11 9 -73
63 -137 119 -64 56 -120 102 -125 101 -4 0 -66 -52 -138 -115z m263 -55 c65
-56 126 -106 138 -111 16 -8 40 -2 105 25 l84 35 12 -68 c12 -74 49 -154 85
-186 12 -12 57 -44 98 -71 113 -76 113 -72 17 -125 -97 -55 -137 -94 -171
-168 -31 -65 -36 -162 -10 -198 19 -28 45 -28 139 2 41 13 75 22 75 19 0 -5
-48 -71 -73 -99 -16 -19 -23 -20 -58 -11 -29 7 -56 6 -94 -2 -105 -24 -175
-102 -221 -246 -45 -142 -35 -221 36 -263 l29 -18 -64 -99 c-62 -98 -64 -99
-74 -73 -22 59 -34 165 -28 263 7 118 30 197 111 370 78 167 98 250 99 405 3
249 -66 381 -222 427 -73 21 -200 21 -273 0 -120 -36 -181 -115 -214 -277 -35
-177 -5 -350 105 -587 79 -171 94 -231 95 -373 1 -108 -17 -234 -34 -245 -5
-3 -35 39 -68 92 l-60 97 28 18 c51 31 63 60 58 141 -11 147 -80 284 -172 342
-44 27 -57 30 -134 30 l-85 0 -38 50 c-21 28 -39 53 -39 56 0 4 34 -4 75 -17
95 -30 109 -30 134 2 45 58 13 202 -63 281 -23 23 -76 62 -118 86 l-78 44 28
25 c15 14 59 46 97 70 39 25 78 54 87 64 30 34 66 127 73 187 5 38 11 56 19
53 96 -43 169 -65 184 -57 9 5 69 54 132 110 63 55 119 100 123 101 5 0 61
-46 125 -101z"/>
<path d="M1006 1503 c-47 -65 -93 -133 -103 -150 -17 -32 -17 -34 0 -65 33
-61 179 -258 198 -269 33 -17 57 -1 113 75 109 148 149 214 142 238 -3 13 -48
82 -99 153 -87 122 -95 130 -129 133 -36 3 -37 2 -122 -115z m145 44 c9 -12
49 -68 88 -125 l73 -102 -93 -131 -93 -130 -18 23 c-10 13 -52 71 -94 130
l-76 108 89 125 c48 68 93 125 98 124 6 0 17 -10 26 -22z"/>
<path d="M1058 1453 c-81 -114 -91 -131 -84 -148 12 -32 138 -195 151 -195 13
0 139 163 151 195 7 17 -3 34 -84 148 -30 42 -61 77 -67 77 -6 0 -37 -35 -67
-77z m118 -64 c24 -35 44 -67 44 -72 0 -7 -89 -137 -94 -137 -5 0 -96 129 -96
136 0 12 92 145 97 140 3 -2 24 -32 49 -67z"/>
</g>
</svg>
